<?xml version="1.0" encoding="iso-8859-1"?>
<!-- Generator: Adobe Illustrator 19.0.0, SVG Export Plug-In . SVG Version: 6.00 Build 0)  -->
<svg version="1.1" id="Capa_1" xmlns="http://www.w3.org/2000/svg" xmlns:xlink="http://www.w3.org/1999/xlink" x="0px" y="0px"
	 viewBox="0 0 479.924 479.924" style="enable-background:new 0 0 479.924 479.924;" xml:space="preserve">
<g>
	<g>
		<path d="M396.791,131.784L396.791,131.784C381.287,62.867,312.85,19.567,243.933,35.071C209.045,42.92,179.037,65.015,161.183,96
			h-1.192c-50.189,0.125-93.158,36.006-102.232,85.368c-45.636,16.715-69.082,67.26-52.367,112.897
			C18.089,328.93,51.073,351.986,87.991,352h8v-16h-8c-39.765-0.018-71.985-32.269-71.967-72.033
			c0.015-31.728,20.796-59.706,51.167-68.887c3.006-0.917,5.196-3.508,5.6-6.624c5.841-43.714,43.097-76.38,87.2-76.456
			c1.216,0,2.4,0.088,3.616,0.168l1.696,0.104c3.124,0.152,6.057-1.507,7.536-4.264c28.665-54.758,96.293-75.911,151.051-47.245
			c30.533,15.983,51.998,45.143,58.189,79.045c0.575,3.189,3.017,5.716,6.184,6.4c51.8,11.305,84.627,62.462,73.322,114.262
			c-9.608,44.021-48.537,75.437-93.594,75.53v16c61.856-0.037,111.97-50.211,111.933-112.067
			C479.894,189.219,445.791,144.854,396.791,131.784z"/>
	</g>
</g>
<g>
	<g>
		<path d="M231.991,208c-66.274,0-120,53.726-120,120s53.726,120,120,120s120-53.726,120-120
			C351.916,261.756,298.234,208.074,231.991,208z M231.991,432c-57.438,0-104-46.562-104-104s46.562-104,104-104s104,46.562,104,104
			C335.925,385.41,289.401,431.933,231.991,432z"/>
	</g>
</g>
<g>
	<g>
		<polygon points="282.903,288.4 271.591,277.088 231.991,316.688 192.391,277.088 181.079,288.4 220.679,328 181.079,367.6 
			192.391,378.912 231.991,339.312 271.591,378.912 282.903,367.6 243.303,328 		"/>
	</g>
</g>
<g>
</g>
<g>
</g>
<g>
</g>
<g>
</g>
<g>
</g>
<g>
</g>
<g>
</g>
<g>
</g>
<g>
</g>
<g>
</g>
<g>
</g>
<g>
</g>
<g>
</g>
<g>
</g>
<g>
</g>
</svg>
